<svg width="44" height="44" viewBox="0 0 44 44" fill="none" xmlns="http://www.w3.org/2000/svg">
<path d="M22.0001 38.5C31.1128 38.5 38.5001 31.1127 38.5001 22C38.5001 12.8873 31.1128 5.5 22.0001 5.5C12.8874 5.5 5.50006 12.8873 5.50006 22C5.50006 31.1127 12.8874 38.5 22.0001 38.5Z" stroke="#0000DE" stroke-linecap="round" stroke-linejoin="round"/>
<path d="M22 32.3125C22.7594 32.3125 23.375 31.6969 23.375 30.9375C23.375 30.1781 22.7594 29.5625 22 29.5625C21.2406 29.5625 20.625 30.1781 20.625 30.9375C20.625 31.6969 21.2406 32.3125 22 32.3125Z" fill="#0000DE"/>
<path d="M22 24.7507V23.3757C22.9518 23.3757 23.8823 23.0935 24.6737 22.5647C25.4651 22.0359 26.0819 21.2843 26.4462 20.4049C26.8104 19.5255 26.9057 18.5579 26.72 17.6244C26.5343 16.6908 26.076 15.8333 25.403 15.1603C24.7299 14.4872 23.8724 14.0289 22.9389 13.8432C22.0053 13.6575 21.0377 13.7528 20.1583 14.1171C19.279 14.4813 18.5274 15.0981 17.9986 15.8896C17.4697 16.681 17.1875 17.6114 17.1875 18.5632" stroke="#0000DE" stroke-linecap="round" stroke-linejoin="round"/>
</svg>
